<?xml version="1.0" encoding="UTF-8"?>
<!DOCTYPE svg PUBLIC "-//W3C//DTD SVG 1.1//EN" "http://www.w3.org/Graphics/SVG/1.1/DTD/svg11.dtd">
<svg xmlns="http://www.w3.org/2000/svg" version="1.1" width="528px" height="496px" style="shape-rendering:geometricPrecision; text-rendering:geometricPrecision; image-rendering:optimizeQuality; fill-rule:evenodd; clip-rule:evenodd" xmlns:xlink="http://www.w3.org/1999/xlink">
<g><path style="opacity:1" fill="#000000" d="M 101.5,2.5 C 209.501,2.33333 317.501,2.5 425.5,3C 488.808,7.97396 521.975,42.1406 525,105.5C 525.667,200.5 525.667,295.5 525,390.5C 522.451,452.209 490.618,485.542 429.5,490.5C 424.887,491.279 420.22,491.779 415.5,492C 314.167,492.667 212.833,492.667 111.5,492C 39.9734,490.14 3.64003,453.474 2.5,382C 2.59257,292.27 2.59257,202.27 2.5,112C 2.26571,88.437 7.76571,66.2703 19,45.5C 33.5332,24.0114 53.6999,10.8447 79.5,6C 86.96,4.70001 94.2933,3.53334 101.5,2.5 Z M 244.5,82.5 C 246.459,88.7496 247.126,95.4163 246.5,102.5C 187.088,108.436 146.588,139.103 125,194.5C 122.372,202.677 120.538,211.011 119.5,219.5C 112.167,219.5 104.833,219.5 97.5,219.5C 108.007,162.253 139.34,121.086 191.5,96C 208.616,88.8049 226.283,84.3049 244.5,82.5 Z M 267.5,387.5 C 267.5,386.5 267.5,385.5 267.5,384.5C 270.713,384.81 273.713,384.477 276.5,383.5C 326.639,382.527 365.139,361.194 392,319.5C 399.533,306.067 404.367,291.733 406.5,276.5C 413.833,276.5 421.167,276.5 428.5,276.5C 415.483,337.666 379.149,377.833 319.5,397C 302.445,401.465 285.112,403.965 267.5,404.5C 267.5,398.833 267.5,393.167 267.5,387.5 Z M 371.5,281.5 C 375.868,285.014 380.535,288.014 385.5,290.5C 368.452,333.876 336.785,358.543 290.5,364.5C 290.067,360.3 289.4,356.133 288.5,352C 288.833,351.5 289.167,351 289.5,350.5C 330.318,343.336 357.651,320.336 371.5,281.5 Z"/></g>
<g><path style="opacity:1" fill="#f8f8f8" d="M 240.5,310.5 C 240.5,309.833 240.167,309.5 239.5,309.5C 235.085,298.843 231.752,287.843 229.5,276.5C 231.255,274.239 232.422,271.572 233,268.5C 234.167,264.187 234.834,259.853 235,255.5C 233.181,261.774 231.515,268.107 230,274.5C 229.617,275.056 229.117,275.389 228.5,275.5C 222.387,257.056 216.887,238.39 212,219.5C 206.667,231.5 201.333,243.5 196,255.5C 194.786,257.049 193.286,258.215 191.5,259C 153.833,259.667 116.167,259.667 78.5,259C 71.9434,256.315 69.7767,251.481 72,244.5C 72.9476,242.43 74.4476,240.93 76.5,240C 111.5,239.667 146.5,239.333 181.5,239C 188.521,223.123 195.688,207.289 203,191.5C 208.126,185.004 214.292,183.837 221.5,188C 222.667,189.833 223.833,191.667 225,193.5C 229.347,208.895 233.68,224.228 238,239.5C 245.299,199.971 254.633,160.971 266,122.5C 270.368,119.58 275.201,118.747 280.5,120C 283.333,121.5 285.5,123.667 287,126.5C 299.094,171.637 310.428,216.97 321,262.5C 326.669,240.162 332.335,217.829 338,195.5C 342.491,190.741 347.991,189.241 354.5,191C 355.579,191.956 356.745,192.789 358,193.5C 365.311,208.622 372.478,223.788 379.5,239C 402.5,239.333 425.5,239.667 448.5,240C 454.742,243.816 456.075,248.983 452.5,255.5C 450.972,256.861 449.305,258.028 447.5,259C 421.5,259.667 395.5,259.667 369.5,259C 367.061,258.226 365.227,256.726 364,254.5C 359.924,244.685 355.591,235.018 351,225.5C 343.513,254.446 336.18,283.446 329,312.5C 326.441,315.349 323.274,316.183 319.5,315C 317.333,314.167 315.833,312.667 315,310.5C 300.533,263.234 287.533,215.567 276,167.5C 264.962,215.571 253.129,263.238 240.5,310.5 Z"/></g>
<g><path style="opacity:1" fill="#f6f6f6" d="M 191.5,160.5 C 190.262,160.19 190.262,159.69 191.5,159C 195.042,157.221 197.375,154.887 198.5,152C 196.741,151.02 195.074,150.353 193.5,150C 196.032,149.388 196.865,147.888 196,145.5C 195,145.5 194,145.5 193,145.5C 191.796,144.529 191.296,143.529 191.5,142.5C 190.692,142.808 190.025,143.308 189.5,144C 190.747,145.494 190.747,146.994 189.5,148.5C 189.467,147.011 188.967,145.678 188,144.5C 186.951,146.107 185.451,146.773 183.5,146.5C 195.413,137.511 208.746,131.178 223.5,127.5C 224.727,133.196 226.06,138.863 227.5,144.5C 214.502,147.716 202.502,153.05 191.5,160.5 Z"/></g>
<g><path style="opacity:1" fill="#e5e5e7" d="M 191.5,160.5 C 185.896,164.765 180.563,169.432 175.5,174.5C 176.203,172.284 177.536,170.451 179.5,169C 178.833,168.667 178.167,168.333 177.5,168C 178.374,166.273 178.207,164.44 177,162.5C 176.667,163.167 176.333,163.833 176,164.5C 175.099,161.929 173.766,159.596 172,157.5C 167.255,161.74 163.088,166.407 159.5,171.5C 158.527,173.139 157.194,174.473 155.5,175.5C 161.144,166.342 168.144,158.176 176.5,151C 178.734,149.25 181.068,147.75 183.5,146.5C 185.451,146.773 186.951,146.107 188,144.5C 188.967,145.678 189.467,147.011 189.5,148.5C 190.747,146.994 190.747,145.494 189.5,144C 190.025,143.308 190.692,142.808 191.5,142.5C 191.296,143.529 191.796,144.529 193,145.5C 194,145.5 195,145.5 196,145.5C 196.865,147.888 196.032,149.388 193.5,150C 195.074,150.353 196.741,151.02 198.5,152C 197.375,154.887 195.042,157.221 191.5,159C 190.262,159.69 190.262,160.19 191.5,160.5 Z"/></g>
<g><path style="opacity:1" fill="#bdbdc3" d="M 175.5,174.5 C 172.547,179.45 169.214,184.117 165.5,188.5C 166.37,185.622 167.703,182.955 169.5,180.5C 167.674,179.82 166.174,178.154 165,175.5C 164.667,176.167 164.333,176.833 164,177.5C 162.637,175.316 161.137,173.316 159.5,171.5C 163.088,166.407 167.255,161.74 172,157.5C 173.766,159.596 175.099,161.929 176,164.5C 176.333,163.833 176.667,163.167 177,162.5C 178.207,164.44 178.374,166.273 177.5,168C 178.167,168.333 178.833,168.667 179.5,169C 177.536,170.451 176.203,172.284 175.5,174.5 Z"/></g>
<g><path style="opacity:1" fill="#9f9fa6" d="M 159.5,171.5 C 161.137,173.316 162.637,175.316 164,177.5C 164.333,176.833 164.667,176.167 165,175.5C 166.174,178.154 167.674,179.82 169.5,180.5C 167.703,182.955 166.37,185.622 165.5,188.5C 164.008,192.818 162.008,196.818 159.5,200.5C 160.199,197.427 161.199,194.427 162.5,191.5C 161.975,190.808 161.308,190.308 160.5,190C 162.158,189.275 162.658,188.108 162,186.5C 161.667,187.167 161.333,187.833 161,188.5C 160.316,187.216 160.483,186.049 161.5,185C 159.479,184.487 157.979,183.32 157,181.5C 155.442,182.345 154.442,181.679 154,179.5C 152.391,182.407 150.558,185.073 148.5,187.5C 149.828,182.835 152.161,178.835 155.5,175.5C 157.194,174.473 158.527,173.139 159.5,171.5 Z"/></g>
<g><path style="opacity:1" fill="#7f7f89" d="M 159.5,200.5 C 159.631,201.376 159.298,202.043 158.5,202.5C 153.926,200.629 149.426,198.629 145,196.5C 145.081,193.092 146.248,190.092 148.5,187.5C 150.558,185.073 152.391,182.407 154,179.5C 154.442,181.679 155.442,182.345 157,181.5C 157.979,183.32 159.479,184.487 161.5,185C 160.483,186.049 160.316,187.216 161,188.5C 161.333,187.833 161.667,187.167 162,186.5C 162.658,188.108 162.158,189.275 160.5,190C 161.308,190.308 161.975,190.808 162.5,191.5C 161.199,194.427 160.199,197.427 159.5,200.5 Z"/></g>
<g><path style="opacity:1" fill="#f5f5f6" d="M 274.5,235.5 C 286.69,235.863 290.856,241.863 287,253.5C 281.664,259.071 275.831,259.738 269.5,255.5C 263.39,246.837 265.057,240.17 274.5,235.5 Z"/></g>
<g><path style="opacity:1" fill="#a4a4ac" d="M 229.5,276.5 C 228.833,276.5 228.5,276.167 228.5,275.5C 229.117,275.389 229.617,275.056 230,274.5C 231.515,268.107 233.181,261.774 235,255.5C 234.834,259.853 234.167,264.187 233,268.5C 232.422,271.572 231.255,274.239 229.5,276.5 Z"/></g>
<g><path style="opacity:1" fill="#080812" d="M 188.5,273.5 C 186.589,273.574 185.422,274.574 185,276.5C 184.667,276.167 184.333,275.833 184,275.5C 183.508,276.549 183.674,277.549 184.5,278.5C 183.965,280.271 183.131,280.604 182,279.5C 180.488,281.957 179.154,281.957 178,279.5C 177.333,283.5 176.667,283.5 176,279.5C 174.334,280.34 174.167,279.84 175.5,278C 174.809,276.933 174.309,275.766 174,274.5C 173.439,276.725 172.439,278.725 171,280.5C 169.307,276.678 167.973,277.011 167,281.5C 165.26,280.284 164.26,278.618 164,276.5C 163.333,281.833 162.667,281.833 162,276.5C 161.436,282.638 160.103,283.305 158,278.5C 157.581,279.672 156.915,280.672 156,281.5C 155.259,280.359 154.425,280.359 153.5,281.5C 152.787,279.565 151.787,279.232 150.5,280.5C 145.231,277.078 140.064,273.411 135,269.5C 134.386,267.687 134.719,267.353 136,268.5C 136.724,266.041 138.057,265.041 140,265.5C 141.309,263.109 142.309,263.109 143,265.5C 143.333,264.833 143.667,264.167 144,263.5C 145.264,263.64 146.431,263.64 147.5,263.5C 144.553,262.679 141.553,262.179 138.5,262C 156.407,261.826 174.24,261.326 192,260.5C 192.87,261.108 193.37,261.941 193.5,263C 192.673,267.026 191.006,270.526 188.5,273.5 Z"/></g>
<g><path style="opacity:1" fill="#0b0b13" d="M 231.5,293.5 C 230.849,294.091 230.182,294.757 229.5,295.5C 229.705,291.735 228.872,291.735 227,295.5C 225.833,293 224,291.167 221.5,290C 223.709,289.043 223.543,287.876 221,286.5C 220.309,288.891 219.309,288.891 218,286.5C 216.155,289.184 214.988,288.851 214.5,285.5C 214.608,284.558 214.941,283.725 215.5,283C 214.333,282.5 213.5,281.667 213,280.5C 212.536,281.094 212.369,281.761 212.5,282.5C 208.115,273.293 205.781,263.626 205.5,253.5C 206.192,254.025 206.692,254.692 207,255.5C 207.667,254.167 208.333,252.833 209,251.5C 209.974,253.878 210.641,253.544 211,250.5C 211.308,251.308 211.808,251.975 212.5,252.5C 212.833,251.833 213.167,251.167 213.5,250.5C 214.308,252.423 214.808,254.423 215,256.5C 216.389,252.728 217.389,252.728 218,256.5C 218.92,256.93 219.753,257.264 220.5,257.5C 220.167,258.167 219.833,258.833 219.5,259.5C 219.846,260.696 220.346,260.696 221,259.5C 222.693,262.935 223.193,266.435 222.5,270C 222.8,272.024 223.633,272.524 225,271.5C 227.789,278.659 229.956,285.992 231.5,293.5 Z"/></g>
<g><path style="opacity:1" fill="#0b0b13" d="M 265.5,287.5 C 262.759,292.721 260.259,292.388 258,286.5C 257.5,287.667 256.667,288.5 255.5,289C 257.158,289.725 257.658,290.892 257,292.5C 256.333,289.833 255.667,289.833 255,292.5C 254.282,291.549 253.449,291.383 252.5,292C 255.079,293.612 255.079,295.112 252.5,296.5C 251.402,292.639 250.569,292.639 250,296.5C 249.015,294.825 248.181,293.158 247.5,291.5C 248.755,287.563 249.922,283.563 251,279.5C 254.468,276.312 255.301,272.479 253.5,268C 254.207,265.48 255.04,262.98 256,260.5C 258.311,260.606 260.811,261.106 263.5,262C 262.304,262.654 262.304,263.154 263.5,263.5C 265.252,261.123 267.252,260.956 269.5,263C 268.72,264.073 268.887,265.24 270,266.5C 270.333,265.833 270.667,265.167 271,264.5C 270.753,270.891 269.753,277.225 268,283.5C 267.878,285.437 267.045,286.77 265.5,287.5 Z"/></g>
<g><path style="opacity:1" fill="#0a0a12" d="M 308.5,294.5 C 307.71,295.609 307.21,296.942 307,298.5C 305.333,296.167 303.667,293.833 302,291.5C 301.333,294.167 300.667,294.167 300,291.5C 299.667,292.167 299.333,292.833 299,293.5C 298.333,292.167 297.667,290.833 297,289.5C 296.683,291.301 296.016,291.634 295,290.5C 294.784,288.616 294.117,286.949 293,285.5C 291.605,286.815 290.605,286.481 290,284.5C 289.536,285.094 289.369,285.761 289.5,286.5C 285.939,278.591 283.772,270.258 283,261.5C 284.583,261.493 286.249,261.826 288,262.5C 288.317,260.699 288.984,260.366 290,261.5C 291.314,260.687 292.481,259.687 293.5,258.5C 293.835,263.172 295.668,266.839 299,269.5C 298.695,267.557 298.695,265.557 299,263.5C 300.603,268.141 302.103,272.808 303.5,277.5C 303.291,278.086 302.957,278.586 302.5,279C 305.181,283.877 307.181,289.043 308.5,294.5 Z"/></g>
<g><path style="opacity:1" fill="#19191f" d="M 188.5,273.5 C 186.418,281.827 181.418,287.66 173.5,291C 163.878,291.898 156.211,288.398 150.5,280.5C 151.787,279.232 152.787,279.565 153.5,281.5C 154.425,280.359 155.259,280.359 156,281.5C 156.915,280.672 157.581,279.672 158,278.5C 160.103,283.305 161.436,282.638 162,276.5C 162.667,281.833 163.333,281.833 164,276.5C 164.26,278.618 165.26,280.284 167,281.5C 167.973,277.011 169.307,276.678 171,280.5C 172.439,278.725 173.439,276.725 174,274.5C 174.309,275.766 174.809,276.933 175.5,278C 174.167,279.84 174.334,280.34 176,279.5C 176.667,283.5 177.333,283.5 178,279.5C 179.154,281.957 180.488,281.957 182,279.5C 183.131,280.604 183.965,280.271 184.5,278.5C 183.674,277.549 183.508,276.549 184,275.5C 184.333,275.833 184.667,276.167 185,276.5C 185.422,274.574 186.589,273.574 188.5,273.5 Z"/></g>
<g><path style="opacity:1" fill="#18191f" d="M 231.5,293.5 C 233.455,297.639 234.955,301.972 236,306.5C 236.615,308.116 237.615,309.449 239,310.5C 239.399,310.272 239.565,309.938 239.5,309.5C 240.167,309.5 240.5,309.833 240.5,310.5C 241.209,311.404 242.209,311.737 243.5,311.5C 244.834,304.832 246.167,298.165 247.5,291.5C 248.181,293.158 249.015,294.825 250,296.5C 250.569,292.639 251.402,292.639 252.5,296.5C 255.079,295.112 255.079,293.612 252.5,292C 253.449,291.383 254.282,291.549 255,292.5C 255.667,289.833 256.333,289.833 257,292.5C 257.658,290.892 257.158,289.725 255.5,289C 256.667,288.5 257.5,287.667 258,286.5C 260.259,292.388 262.759,292.721 265.5,287.5C 265.611,288.117 265.944,288.617 266.5,289C 264.782,296.257 263.115,303.424 261.5,310.5C 260.177,314.724 258.844,319.057 257.5,323.5C 256.914,323.291 256.414,322.957 256,322.5C 254.411,325.307 253.911,328.14 254.5,331C 254,331.5 253.5,332 253,332.5C 251.883,331.051 251.216,329.384 251,327.5C 250.667,328.5 250.333,329.5 250,330.5C 247.852,329.023 246.518,327.023 246,324.5C 245.333,328.5 244.667,328.5 244,324.5C 243,325.833 242,325.833 241,324.5C 240.333,319.167 239.667,319.167 239,324.5C 238.667,323.5 238.333,322.5 238,321.5C 236.493,322.505 235.327,323.838 234.5,325.5C 232.866,325.032 231.7,324.032 231,322.5C 230.5,323 230,323.5 229.5,324C 230.517,325.049 230.684,326.216 230,327.5C 228.474,322.373 227.474,322.373 227,327.5C 226.626,325.509 225.793,323.842 224.5,322.5C 219.408,309.608 215.408,296.275 212.5,282.5C 212.369,281.761 212.536,281.094 213,280.5C 213.5,281.667 214.333,282.5 215.5,283C 214.941,283.725 214.608,284.558 214.5,285.5C 214.988,288.851 216.155,289.184 218,286.5C 219.309,288.891 220.309,288.891 221,286.5C 223.543,287.876 223.709,289.043 221.5,290C 224,291.167 225.833,293 227,295.5C 228.872,291.735 229.705,291.735 229.5,295.5C 230.182,294.757 230.849,294.091 231.5,293.5 Z"/></g>
<g><path style="opacity:1" fill="#19191f" d="M 308.5,294.5 C 309.341,298.198 310.341,301.864 311.5,305.5C 311.167,306.167 310.833,306.833 310.5,307.5C 310.846,308.696 311.346,308.696 312,307.5C 313.504,310.509 315.004,313.509 316.5,316.5C 317.5,317 318.5,317.5 319.5,318C 310.743,324.848 303.576,323.348 298,313.5C 295.315,304.418 292.482,295.418 289.5,286.5C 289.369,285.761 289.536,285.094 290,284.5C 290.605,286.481 291.605,286.815 293,285.5C 294.117,286.949 294.784,288.616 295,290.5C 296.016,291.634 296.683,291.301 297,289.5C 297.667,290.833 298.333,292.167 299,293.5C 299.333,292.833 299.667,292.167 300,291.5C 300.667,294.167 301.333,294.167 302,291.5C 303.667,293.833 305.333,296.167 307,298.5C 307.21,296.942 307.71,295.609 308.5,294.5 Z"/></g>
<g><path style="opacity:1" fill="#1e2329" d="M 261.5,310.5 C 260.051,324.58 256.885,338.246 252,351.5C 245.7,358.079 239.367,358.079 233,351.5C 228.766,342.23 225.933,332.563 224.5,322.5C 225.793,323.842 226.626,325.509 227,327.5C 227.474,322.373 228.474,322.373 230,327.5C 230.684,326.216 230.517,325.049 229.5,324C 230,323.5 230.5,323 231,322.5C 231.7,324.032 232.866,325.032 234.5,325.5C 235.327,323.838 236.493,322.505 238,321.5C 238.333,322.5 238.667,323.5 239,324.5C 239.667,319.167 240.333,319.167 241,324.5C 242,325.833 243,325.833 244,324.5C 244.667,328.5 245.333,328.5 246,324.5C 246.518,327.023 247.852,329.023 250,330.5C 250.333,329.5 250.667,328.5 251,327.5C 251.216,329.384 251.883,331.051 253,332.5C 253.5,332 254,331.5 254.5,331C 253.911,328.14 254.411,325.307 256,322.5C 256.414,322.957 256.914,323.291 257.5,323.5C 258.844,319.057 260.177,314.724 261.5,310.5 Z"/></g>
<g><path style="opacity:1" fill="#3d1d5c" d="M 276.5,383.5 C 273.713,384.477 270.713,384.81 267.5,384.5C 267.5,385.5 267.5,386.5 267.5,387.5C 266.566,386.432 266.232,385.099 266.5,383.5C 269.833,383.5 273.167,383.5 276.5,383.5 Z"/></g>
</svg>
